<svg width="256" height="256" xmlns="http://www.w3.org/2000/svg"><defs><style/></defs><path d="M144 21.331c0 4.736-2.06 8.999-5.331 11.93v20.07H192a32 32 0 0 1 32 32V192a32 32 0 0 1-32 32H64a32 32 0 0 1-32-32V85.331a32 32 0 0 1 32-32h53.331v-20.07A16 16 0 1 1 144 21.337zM64 74.67c-5.888 0-10.669 4.774-10.669 10.662V192c0 5.888 4.781 10.669 10.669 10.669h128c5.888 0 10.669-4.775 10.669-10.669V85.331c0-5.888-4.781-10.662-10.669-10.662H64zm-42.669 32H0v64h21.331v-64zm213.338 0H256v64h-21.331v-64zM96 154.669a16 16 0 1 0 0-32 16 16 0 0 0 0 32zm64 0a16 16 0 1 0 0-32 16 16 0 0 0 0 32z" fill="#999"/></svg>